<?xml version="1.0" encoding="UTF-8"?><svg id="Layer_1" xmlns="http://www.w3.org/2000/svg" viewBox="0 0 241.43 175.1"><defs><style>.cls-1{fill:#8112af;}</style></defs><path class="cls-1" d="m170.14,174.6c-4.95,0-10.06-.15-14.57-.29-30.6-.91-62.24-1.85-92.86-7.57-1.45-42.62-2.41-85.85-2.87-128.5v-.83s-36.11,19.52-36.11,19.52L3.67,29.07c-.21-.29-.54-.68-.93-1.12-.85-.98-2.27-2.63-2.25-3.42.05-1.57,4.96-2.94,7.33-3.6.73-.2,1.35-.38,1.74-.52,7.68-2.73,15.53-5.29,23.34-7.62,15.32-4.57,31.04-8.42,46.73-11.43,2.45-.47,4.66-.86,6.89-.86.95,0,1.83.07,2.67.22,3.1.54,5.96,2.16,8.72,3.73l1.15.65c7.03,3.94,17.91,8.63,29.81,8.63,5.86,0,11.3-1.17,16.15-3.49.88-.42,1.75-.88,2.62-1.35,1.42-.76,2.89-1.54,4.41-2.12,2.27-.86,4.68-1.29,6.95-1.62,4.73-.69,9.59-1.03,14.44-1.03,24.42,0,48.95,8.87,67.36,24.35l-24.07,48.65c-8.69-12.78-16.31-26.4-22.65-40.5l-1.11-2.47.15,2.7c2.56,44.8,4.12,90.28,4.66,135.18-7.86,1.77-16.41,2.56-27.66,2.56Z"/><path d="m86.53,1c.92,0,1.77.07,2.59.21,3.02.52,5.84,2.13,8.56,3.68.39.22.77.44,1.15.65,7.08,3.97,18.04,8.7,30.05,8.7,5.94,0,11.44-1.19,16.36-3.54.9-.43,1.78-.9,2.64-1.36,1.47-.78,2.86-1.52,4.34-2.09,2.22-.85,4.61-1.26,6.85-1.59,4.71-.68,9.54-1.03,14.37-1.03,24.17,0,48.45,8.73,66.74,23.98l-23.51,47.53c-8.48-12.55-15.92-25.91-22.13-39.71l-2.22-4.93.31,5.4c2.55,44.67,4.11,90.01,4.65,134.75-7.71,1.7-16.13,2.46-27.15,2.46-4.94,0-10.05-.15-14.56-.29-30.45-.9-61.93-1.84-92.39-7.49-1.44-42.49-2.4-85.58-2.85-128.09l-.02-1.66-1.46.79-26.47,14.31-8.51,4.6-7.8-10.84-8.32-11.55-1.84-2.56-1.84-2.56c-.23-.32-.56-.71-.95-1.16-.64-.74-2.15-2.48-2.13-3.08.02-.8,2.37-1.85,6.96-3.13.76-.21,1.35-.38,1.77-.53,7.67-2.72,15.51-5.28,23.31-7.61,15.31-4.57,31.01-8.41,46.68-11.42,2.42-.47,4.61-.85,6.8-.85m0-1c-2.33,0-4.68.43-6.98.87-15.77,3.03-31.39,6.85-46.78,11.44-7.85,2.34-15.64,4.89-23.36,7.63C7.46,20.63.08,22.09,0,24.51c-.04,1.34,2.5,3.78,3.27,4.85,1.23,1.7,2.45,3.41,3.68,5.11,5.54,7.7,11.09,15.4,16.63,23.11,11.92-6.44,23.84-12.89,35.76-19.33.46,42.98,1.42,85.96,2.88,128.91,30.71,5.79,62.1,6.73,93.33,7.66,4.85.14,9.72.29,14.59.29,9.49,0,18.94-.54,28.16-2.66-.53-45.23-2.09-90.45-4.66-135.61,6.48,14.41,14.25,28.24,23.18,41.28,8.21-16.59,16.41-33.18,24.62-49.77-18.78-15.92-43.39-24.72-67.98-24.72-4.85,0-9.71.34-14.51,1.04-2.4.35-4.8.78-7.06,1.64-2.45.93-4.69,2.35-7.06,3.48-5.03,2.4-10.44,3.44-15.93,3.44-10.14,0-20.59-3.54-29.57-8.57-3.21-1.8-6.41-3.81-10.03-4.44-.91-.16-1.84-.23-2.76-.23h0Z"/></svg>