<?xml version="1.0" encoding="UTF-8"?><svg id="Layer_1" xmlns="http://www.w3.org/2000/svg" viewBox="0 0 138.68 190.81"><defs><style>.cls-1{fill:#fff;}</style></defs><g><polygon class="cls-1" points="1.14 150.53 1.14 106.68 69.42 146.1 69.42 189.95 1.14 150.53"/><path d="m1.64,107.55l67.28,38.85v42.69L1.64,150.24v-42.69m-1-1.73v45l69.28,40v-45L.64,105.81h0Z"/></g><g><polygon class="cls-1" points="69.9 145.81 138.18 106.38 138.18 150.23 69.9 189.65 69.9 145.81"/><path d="m137.68,107.25v42.69l-67.28,38.85v-42.69l67.28-38.85m1-1.73l-69.28,40v45l69.28-40v-45h0Z"/></g><g><polygon class="cls-1" points="1 105.81 69.28 66.39 137.56 105.81 69.28 145.24 1 105.81"/><path d="m69.28,66.97l67.28,38.85-67.28,38.85L2,105.81l67.28-38.85m0-1.15L0,105.81l69.28,40,69.28-40-69.28-40h0Z"/></g><g><path class="cls-1" d="m37.07,125.46c2.22-10.63,5.29-21.5,9.11-32.34l.1-.27c.67-1.9,1.37-3.87,1.61-5.73.15-1.2.11-2.32.07-3.4-.06-1.45-.11-2.81.28-4.36.3-1.18.85-2.42,1.38-3.61.23-.5.45-1,.66-1.5,1.43-3.43,2.13-6.97,1.98-9.97l-.02-.46-.46-.02c-5.42-.2-9.88-2.74-14.19-5.19-1.11-.63-2.26-1.28-2.85-2.56-.65-1.41-.6-3.56-.5-5.05.38-5.72,2.16-12.13,5.16-18.53,4.86-10.38,12.78-19.56,23.53-27.3,4.4-3.16,8.97-3.92,13.66-4.48,1.03-.12,1.93-.18,2.75-.18,3.48,0,5.62,1.07,6.74,3.37.83,1.7,1.03,4.02,1.12,6.28.27,6.38-.26,13.23-1.6,20.36-.1.53-.2,1.07-.31,1.61-.5,2.58-1.02,5.25-1.03,7.67-.02,4.49,1.7,8.22,5.09,11.1,1.36,1.16,2.87,2.1,4.33,3.02,1.49.93,3.02,1.9,4.37,3.06,7.14,6.19,9.64,19.07,6.54,33.66-22.29,8.98-45,20.7-67.52,34.84Z"/><path d="m79.33,1c3.27,0,5.27.98,6.29,3.09.79,1.62.98,3.88,1.07,6.08.27,6.34-.26,13.15-1.59,20.25-.1.53-.2,1.07-.31,1.61-.51,2.6-1.03,5.29-1.04,7.76-.02,4.64,1.76,8.5,5.27,11.48,1.39,1.18,2.92,2.13,4.39,3.06,1.54.96,2.99,1.87,4.31,3.02,6.96,6.03,9.41,18.61,6.43,32.92-21.91,8.84-44.22,20.33-66.36,34.15,2.2-10.24,5.17-20.7,8.85-31.12l.1-.27c.68-1.93,1.39-3.92,1.63-5.83.16-1.24.11-2.38.07-3.48-.06-1.41-.11-2.74.26-4.22.29-1.14.81-2.3,1.36-3.53.23-.5.45-1.01.66-1.51,1.46-3.49,2.17-7.11,2.02-10.19l-.05-.91-.92-.03c-5.3-.2-9.7-2.7-13.96-5.12-1.09-.62-2.12-1.2-2.64-2.34-.6-1.31-.55-3.37-.45-4.81.37-5.66,2.14-12.01,5.11-18.35,4.82-10.3,12.69-19.42,23.37-27.1,4.3-3.09,8.81-3.84,13.43-4.39,1.01-.12,1.89-.18,2.69-.18m0-1c-.92,0-1.87.07-2.81.19-4.27.51-9.23,1.22-13.89,4.57-9.11,6.55-18.08,15.49-23.69,27.49-2.93,6.25-4.82,12.81-5.2,18.71-.13,1.97-.1,3.91.54,5.29.65,1.41,1.87,2.11,3.06,2.79,4.42,2.51,8.93,5.05,14.42,5.25.15,2.93-.54,6.39-1.94,9.76-.72,1.73-1.63,3.46-2.07,5.18-.71,2.83,0,5.1-.36,7.82-.24,1.89-.98,3.92-1.68,5.9-3.97,11.26-7.12,22.53-9.37,33.55,22.94-14.48,45.98-26.4,68.68-35.52,3.21-14.84.66-28.07-6.65-34.4-2.7-2.34-5.98-3.78-8.7-6.08-2.72-2.31-4.93-5.71-4.91-10.71,0-2.87.75-6.07,1.33-9.19,1.34-7.15,1.88-14.07,1.6-20.47-.1-2.38-.33-4.73-1.17-6.48-1.39-2.86-4.17-3.65-7.19-3.65h0Z"/></g></svg>