<?xml version="1.0" encoding="UTF-8"?><svg id="Layer_1" xmlns="http://www.w3.org/2000/svg" viewBox="0 0 160.21 211.75"><defs><style>.cls-1{fill:#fff;}</style></defs><g><polygon class="cls-1" points="4.66 92.04 159.55 2.62 159.55 121.46 4.66 210.88 4.66 92.04"/><path d="m159.05,3.48v117.69L5.17,210.02v-117.69L159.05,3.48m1-1.73L4.17,91.75v120l155.88-90V1.75h0Z"/></g><g><polygon class="cls-1" points="1 90 155.88 .58 159.21 2.5 4.33 91.92 1 90"/><path d="m155.88,1.15l2.33,1.35L4.33,91.35l-2.33-1.35L155.88,1.15m0-1.15L0,90l4.33,2.5L160.21,2.5l-4.33-2.5h0Z"/></g><g><polygon class="cls-1" points=".94 208.21 .94 89.37 4.27 91.29 4.27 210.13 .94 208.21"/><path d="m1.44,90.23l2.33,1.35v117.69l-2.33-1.35v-117.69m-1-1.73v120l4.33,2.5v-120l-4.33-2.5H.44Z"/></g><g><polygon class="cls-1" points="9 96.54 155.22 12.12 155.22 115.96 9 200.38 9 96.54"/><path d="m154.72,12.98v102.69L9.5,199.52v-102.69L154.72,12.98m1-1.73L8.5,96.25v105l147.22-85V11.25h0Z"/></g><g><polygon class="cls-1" points="74.15 163.54 105.2 145.62 105.2 151.46 74.15 169.38 74.15 163.54"/><path d="m104.7,146.48v4.69l-30.04,17.35v-4.69l30.04-17.35m1-1.73l-32.04,18.5v7l32.04-18.5v-7h0Z"/></g></svg>