<?xml version="1.0" encoding="UTF-8"?><svg id="Layer_1" xmlns="http://www.w3.org/2000/svg" viewBox="0 0 103.94 178.22"><defs><style>.cls-1{fill:#fff;}</style></defs><g><polygon class="cls-1" points="52.48 118.51 103.44 89.08 103.44 147.93 52.48 177.35 52.48 118.51"/><path d="m102.94,89.95v57.69l-49.96,28.85v-57.69l49.96-28.85m1-1.73l-51.96,30v60l51.96-30v-60h0Z"/></g><g><polygon class="cls-1" points="1.48 147.93 1.48 89.08 52.44 118.5 52.44 177.35 1.48 147.93"/><path d="m1.98,89.95l49.96,28.85v57.69L1.98,147.64v-57.69m-1-1.73v60l51.96,30v-60L.98,88.22h0Z"/></g><g><polygon class="cls-1" points="1 89.22 51.96 59.79 102.92 89.22 51.96 118.64 1 89.22"/><path d="m51.96,60.37l49.96,28.85-49.96,28.85L2,89.22l49.96-28.85m0-1.15L0,89.22l51.96,30,51.96-30-51.96-30h0Z"/></g><g><path class="cls-1" d="m27.62,84.93c-11.14,0-17.79-6.9-17.79-18.47,0-19.42,18.34-45.8,40.89-58.82C58.81,2.97,66.63.5,73.31.5c11.14,0,17.79,6.9,17.79,18.47,0,19.42-18.34,45.8-40.89,58.82-8.1,4.68-15.91,7.15-22.59,7.15Z"/><path d="m73.31,0v1h0c10.83,0,17.29,6.72,17.29,17.97,0,19.26-18.23,45.45-40.64,58.38-8.03,4.63-15.75,7.08-22.34,7.08-10.83,0-17.29-6.72-17.29-17.97,0-19.26,18.23-45.45,40.64-58.38,8.02-4.63,15.75-7.08,22.35-7.08V0m0,0c-6.53,0-14.39,2.34-22.84,7.22C27.74,20.33,9.33,46.86,9.33,66.47c0,12.31,7.26,18.97,18.29,18.97,6.53,0,14.39-2.34,22.84-7.22,22.72-13.12,41.14-39.64,41.14-59.25C91.6,6.65,84.34,0,73.31,0h0Z"/></g></svg>