<?xml version="1.0" encoding="UTF-8"?><svg id="Layer_1" xmlns="http://www.w3.org/2000/svg" viewBox="0 0 203 134"><defs><style>.cls-1{fill:#454746;}</style></defs><g><ellipse class="cls-1" cx="101.5" cy="114" rx="101" ry="19.5"/><path d="m101.5,95c60.12,0,100.5,9.82,100.5,19s-40.38,19-100.5,19S1,123.18,1,114s40.38-19,100.5-19m0-1C45.44,94,0,102.95,0,114s45.44,20,101.5,20,101.5-8.95,101.5-20-45.44-20-101.5-20h0Z"/></g><g><rect class="cls-1" x="32.5" y=".5" width="140" height="113"/><path d="m172,1v112H33V1h139m1-1H32v114h141V0h0Z"/></g></svg>