<?xml version="1.0" encoding="UTF-8"?><svg id="Layer_1" xmlns="http://www.w3.org/2000/svg" viewBox="0 0 98.9 199.2"><defs><style>.cls-1{fill:#fff;stroke:#000;stroke-miterlimit:10;}</style></defs><path d="m10.48,15.5c4.22-4.44,9.31-7.98,15.09-10.07,5.44-1.96,11.18-2.66,16.95-2.42,7.25.3,14.35,1.99,21.34,3.86,3.19.85,6.49,1.59,9.57,2.8s5.28,3.2,7.44,5.6c2.35,2.62,4.78,4.85,7.71,6.81s5.6,3.69,7.78,6.35l-.23-1.82c-1.57,3.46-2.18,7.09-2.21,10.87-.01,1.52.04,3.17-1.75,3.47s-3.91.38-5.72-.04c-3.12-.72-5.56-3.12-7.74-5.33-2.34-2.36-4.55-4.87-7.22-6.87-6.21-4.67-14.76-5.81-22.33-5.81-8.42,0-16.74,1.68-24.92,3.46-1.99.43-4.18,1.2-6.24,1.04-1.75-.13-2.9-1.27-3.72-2.73-1.8-3.21-2.24-7.21-2.75-10.8-.27-1.9-3.16-1.09-2.89.8.82,5.82,2.09,15.86,9.92,15.74,1.94-.03,3.87-.58,5.76-1,2.23-.49,4.47-.97,6.72-1.41,4.4-.87,8.84-1.6,13.32-1.92,8.22-.58,17.88-.14,24.9,4.7,5.6,3.86,9.23,11.19,16.18,12.97,2.23.57,4.59.47,6.86.19,1.79-.22,3.34-.98,4.08-2.72.84-1.97.47-4.28.64-6.37.2-2.3.75-4.62,1.71-6.72.31-.67.23-1.25-.23-1.82-2.07-2.53-4.7-4.39-7.41-6.18s-5.05-3.62-7.2-6c-2.27-2.52-4.5-4.95-7.6-6.47s-6.28-2.24-9.48-3.11C53.65.97,39.6-2.23,26.21,2.05c-6.84,2.19-12.92,6.14-17.86,11.33-1.33,1.4.79,3.52,2.12,2.12h0Z"/><ellipse class="cls-1" cx="47.42" cy="69.96" rx="43.5" ry="46"/><path d="m43.67,116.52c-.48,21.09-.6,42.19-.34,63.29.07,5.98.18,11.96.31,17.94.04,1.93,3.04,1.93,3,0-.46-21.09-.56-42.2-.29-63.29.08-5.98.19-11.96.32-17.94.04-1.93-2.96-1.93-3,0h0Z"/><path d="m44.15,147.15c-13.65-9-27.63-17.51-41.9-25.5-1.69-.94-3.2,1.65-1.51,2.59,14.27,7.99,28.24,16.5,41.9,25.5,1.62,1.07,3.12-1.53,1.51-2.59h0Z"/><path d="m42.58,150.9c14.64-1.35,29.12-4.12,43.22-8.3,1.85-.55,1.06-3.44-.8-2.89-13.84,4.11-28.05,6.87-42.42,8.19-1.91.18-1.92,3.18,0,3h0Z"/></svg>