<?xml version="1.0" encoding="UTF-8"?><svg id="Layer_1" xmlns="http://www.w3.org/2000/svg" viewBox="0 0 147.22 174.5"><defs><style>.cls-1{fill:#fff;}</style></defs><g><polygon class="cls-1" points="60.78 157.71 60.78 134.87 68.44 139.29 68.44 162.13 60.78 157.71"/><path d="m61.28,135.73l6.66,3.85v21.69l-6.66-3.85v-21.69m-1-1.73v24l8.66,5v-24l-8.66-5h0Z"/></g><g><polygon class="cls-1" points="60.63 134.5 102.93 110.08 110.59 114.5 68.29 138.92 60.63 134.5"/><path d="m102.93,110.65l6.66,3.85-41.3,23.85-6.66-3.85,41.3-23.85m0-1.15l-43.3,25,8.66,5,43.3-25-8.66-5h0Z"/></g><g><polygon class="cls-1" points="68.46 139.29 110.76 114.87 110.76 137.71 68.46 162.13 68.46 139.29"/><path d="m110.26,115.73v21.69l-41.3,23.85v-21.69l41.3-23.85m1-1.73l-43.3,25v24l43.3-25v-24h0Z"/></g><g><polygon class="cls-1" points="8.83 84.79 146.39 5.37 146.39 94.21 8.83 173.63 8.83 84.79"/><path d="m145.89,6.23v87.69L9.33,172.77v-87.69L145.89,6.23m1-1.73L8.33,84.5v90l138.56-80V4.5h0Z"/></g><g><polygon class="cls-1" points="1 80 138.56 .58 146.22 5 8.66 84.42 1 80"/><path d="m138.56,1.15l6.66,3.85L8.66,83.85l-6.66-3.85L138.56,1.15m0-1.15L0,80l8.66,5L147.22,5l-8.66-5h0Z"/></g><g><polygon class="cls-1" points=".78 168.71 .78 79.87 8.44 84.29 8.44 173.13 .78 168.71"/><path d="m1.28,80.73l6.66,3.85v87.69l-6.66-3.85v-87.69m-1-1.73v90l8.66,5v-90L.28,79H.28Z"/></g></svg>