<?xml version="1.0" encoding="UTF-8"?><svg id="Layer_1" xmlns="http://www.w3.org/2000/svg" viewBox="0 0 189 166.27"><defs><style>.cls-1{fill:#3f3819;}</style></defs><path class="cls-1" d="m134.2,165.7c-1.47-.81-2.27-2.4-3.12-4.07-.7-1.38-1.42-2.8-2.56-3.87-1.33-1.24-3.06-1.88-5.13-1.88-2.34,0-5.09.86-7.57,2.35-.92.56-1.84,1.18-2.73,1.78-2.67,1.8-5.43,3.65-8.56,3.99-.36.04-.73.06-1.08.06-3.25,0-6.24-1.5-9.41-3.08-2.36-1.18-4.8-2.4-7.38-2.97-1.2-.26-2.42-.39-3.74-.39-3.62,0-7.28,1.01-10.81,1.98-3.53.97-7.18,1.98-10.79,1.98-.2,0-.39,0-.59,0-7.24-.22-14.54-4.65-21.71-13.16-9.24-10.98-15.84-24.18-21.59-36.8-5.08-11.15-8.89-20.63-11-30.64-2.58-12.25-2.44-24.94-2.31-37.2.1-8.92.2-18.15-.74-27.17-.33-3.14-.75-6.02-1.29-8.81-.09-.45-.29-1.12-.53-1.89C1.15,4.53.35,1.91.51.77c.79.6,1.56,1.2,2.33,1.8,3.75,2.9,7.3,5.65,11.62,7.83,5.11,2.59,10.78,4.65,16.85,6.12,12,2.92,24.18,3.29,33.44,3.29,1.1,0,2.2,0,3.3-.02,25.6-.25,50.07-3.1,72.73-8.45,8.92-2.11,17.83-4.67,26.51-7.61,4.2-1.43,8.55-2.9,12.78-2.9,1.85,0,3.51.28,5.06.86l2.21,23.59c.67,7.09,1.35,14.43,1.1,21.66-.27,7.69-1.61,15.42-2.91,22.9-.75,4.33-1.53,8.81-2.09,13.24-.91,7.15-1.3,14.44-1.15,21.64.03,1.54.09,3.08.14,4.63.2,5.63.41,11.46-.61,17.05-.95,5.22-2.99,10.26-5.16,15.4-2.93,6.92-6.02,13.88-9.19,20.7l-12.08-18.5-.42.65c-5.32,8.33-12.5,15.6-20.76,21.04Z"/><path d="m180.08,1.34c1.67,0,3.18.24,4.59.72l2.18,23.27c.66,7.08,1.35,14.4,1.1,21.6-.27,7.66-1.61,15.38-2.91,22.84-.75,4.33-1.53,8.82-2.1,13.26-.91,7.18-1.3,14.48-1.15,21.72.03,1.55.09,3.12.14,4.64.2,5.61.41,11.41-.6,16.94-.95,5.17-2.97,10.19-5.13,15.3-2.81,6.64-5.77,13.31-8.81,19.86l-11.17-17.1-.85-1.3-.83,1.3c-5.23,8.18-12.26,15.34-20.35,20.71-1.18-.78-1.9-2.21-2.66-3.71-.72-1.42-1.46-2.88-2.66-4.01-1.43-1.33-3.27-2.01-5.47-2.01-3.32,0-6.33,1.52-7.83,2.42-.93.56-1.86,1.19-2.75,1.79-2.74,1.84-5.32,3.59-8.33,3.91-.34.04-.69.05-1.03.05-3.13,0-6.07-1.47-9.18-3.03-2.39-1.19-4.86-2.43-7.5-3.01-1.23-.27-2.49-.4-3.85-.4-3.69,0-7.38,1.02-10.95,2-3.5.96-7.12,1.96-10.66,1.96-.19,0-.38,0-.58,0-7.09-.22-14.27-4.59-21.34-12.99-9.2-10.93-15.78-24.09-21.52-36.68-5.07-11.12-8.87-20.57-10.97-30.54-2.57-12.2-2.43-24.86-2.29-37.1.1-8.93.2-18.17-.74-27.22-.33-3.16-.75-6.05-1.3-8.85-.09-.48-.3-1.16-.54-1.94-.26-.85-.82-2.69-1-3.94.51.39,1.01.78,1.51,1.16,3.77,2.92,7.33,5.67,11.7,7.88,5.15,2.6,10.85,4.68,16.95,6.16,12.05,2.93,24.27,3.31,33.57,3.31,1.1,0,2.2,0,3.3-.02,25.63-.25,50.14-3.1,72.84-8.46,8.93-2.11,17.87-4.67,26.56-7.62,4.16-1.41,8.47-2.87,12.62-2.87M.32,0c-1.1,1.18.96,6.25,1.28,7.88.56,2.9.98,5.83,1.29,8.76,2.23,21.41-1.41,43.2,3.05,64.42,2.25,10.68,6.51,20.82,11.04,30.74,5.93,13.02,12.45,25.96,21.66,36.91,5.71,6.78,13.22,13.07,22.08,13.34.2,0,.4,0,.61,0,7.31,0,14.46-3.96,21.61-3.96,1.21,0,2.42.11,3.63.38,5.88,1.29,11.01,6.06,16.9,6.06.38,0,.76-.02,1.14-.06,4.32-.46,7.78-3.59,11.5-5.84,2.16-1.31,4.83-2.28,7.31-2.28,1.78,0,3.46.5,4.79,1.74,2.51,2.34,2.94,6.69,6.05,8.15,8.46-5.51,15.72-12.84,21.15-21.34,4.05,6.2,8.1,12.4,12.15,18.6,3.32-7.12,6.52-14.29,9.58-21.53,2.13-5.03,4.21-10.13,5.19-15.51,1.31-7.16.63-14.51.48-21.78-.15-7.2.24-14.42,1.15-21.57,1.54-12.09,4.58-24.01,5.01-36.19.25-7.25-.42-14.5-1.1-21.72-.75-7.96-1.49-15.93-2.24-23.89-1.79-.71-3.64-1-5.53-1-4.31,0-8.77,1.51-12.94,2.93-8.69,2.95-17.53,5.49-26.47,7.6-23.76,5.61-48.2,8.19-72.62,8.43-1.1.01-2.19.02-3.29.02-11.2,0-22.46-.63-33.33-3.28-5.78-1.4-11.43-3.39-16.74-6.08C9.33,7.24,5.06,3.58.32,0H.32Z"/></svg>