<?xml version="1.0" encoding="UTF-8"?><svg id="Layer_1" xmlns="http://www.w3.org/2000/svg" viewBox="0 0 215.38 203.15"><defs><style>.cls-1{fill:#112e89;}</style></defs><path class="cls-1" d="m174.62,202.65c-9.58,0-19.27-.54-28.79-1.62-2.15-.24-4.06-.53-5.59-1.59-1.77-1.22-2.78-3.35-3.66-5.43-8.16-19.34-11.88-40.53-15.47-61.03-3.99-22.72-8.11-46.22-18.3-67.24l-.36-.75-.49.67c-7.91,10.78-10.86,24.22-13.71,37.22-.3,1.38-.6,2.76-.91,4.13-7.18,32.08-18.33,63.23-33.13,92.58-.54,1.07-1.06,2-1.9,2.5-.54.32-1.2.46-2.15.46-.38,0-.76-.02-1.13-.05l-42.73-2.71c2.48-10.43.19-21.22-2.02-31.67-.74-3.48-1.5-7.07-2.07-10.58-1.94-11.98-1.78-24.72-1.66-34.95.36-29.51,1.22-59.43,2.54-88.91.1-2.15.17-4.31.25-6.47.19-5.17.38-10.51.83-15.72l.02-.22c.15-1.76.35-4.17,1.86-5.14.46-.29,1.02-.44,1.73-.44,1.26,0,2.71.46,4,.87.62.2,1.2.38,1.72.5,12.53,2.93,26.37,4.77,42.31,5.64,8.05.44,16.69.64,27.18.64,6.93,0,13.95-.09,20.13-.17l36.34-.46c24.21-.31,51.61-.65,75.17-11.83-2.16,9.36-2.08,19.13-2,28.59.05,5.95.1,12.09-.4,18.07-.6,7.17-2.03,14.36-3.41,21.32-.4,2.01-.8,4.03-1.18,6.04-3.45,18.26-5.44,37.08-7.36,55.28-2.52,23.82-5.12,48.44-11.03,72.03-4.86.28-9.78.42-14.65.42Z"/><path d="m213.94,1.79c-1.94,9.11-1.86,18.56-1.79,27.71.05,5.93.1,12.07-.4,18.03-.6,7.14-2.03,14.32-3.4,21.26-.4,2.02-.8,4.03-1.18,6.05-3.45,18.28-5.44,37.11-7.37,55.32-2.5,23.68-5.09,48.16-10.93,71.6-4.73.26-9.52.4-14.26.4-9.57,0-19.23-.54-28.73-1.62-2.08-.24-3.93-.51-5.36-1.5-1.67-1.15-2.63-3.21-3.48-5.21-8.14-19.28-11.85-40.45-15.44-60.92-3.99-22.76-8.12-46.29-18.34-67.37l-.72-1.49-.98,1.34c-7.97,10.86-10.93,24.36-13.79,37.41-.3,1.38-.6,2.76-.91,4.13-7.17,32.04-18.31,63.15-33.09,92.46-.5,1-.98,1.86-1.7,2.29-.46.27-1.04.39-1.9.39-.36,0-.74-.02-1.1-.04l-42.14-2.67c2.29-10.35.03-21-2.15-31.31-.74-3.47-1.5-7.06-2.06-10.56-1.93-11.93-1.78-24.65-1.65-34.87.36-29.51,1.22-59.42,2.54-88.9.1-2.15.17-4.31.25-6.48.19-5.16.38-10.49.83-15.69l.02-.21c.14-1.66.33-3.92,1.63-4.76.37-.24.85-.36,1.46-.36,1.18,0,2.59.45,3.84.85.63.2,1.22.39,1.76.51,12.56,2.94,26.43,4.78,42.4,5.65,8.06.44,16.71.64,27.21.64,6.94,0,13.95-.09,20.14-.17l36.34-.46c23.95-.3,51.01-.65,74.46-11.44m1.44-1.79c-23.22,11.36-50.06,11.91-75.91,12.23-12.11.15-24.22.31-36.34.46-6.71.08-13.42.17-20.13.17-9.06,0-18.11-.15-27.16-.64-14.19-.77-28.37-2.39-42.23-5.63-1.58-.37-3.88-1.38-5.83-1.38-.73,0-1.42.14-2,.52-1.78,1.15-1.95,3.85-2.11,5.73-.64,7.37-.75,14.82-1.09,22.21C1.28,63.29.43,92.94.06,122.6c-.14,11.71-.21,23.48,1.66,35.04,2.3,14.21,7.51,28.68,3.96,42.63,14.44.92,28.88,1.83,43.32,2.75.38.02.77.05,1.16.05.85,0,1.69-.11,2.4-.53.99-.59,1.57-1.67,2.09-2.7,14.81-29.38,25.98-60.59,33.17-92.69,3.21-14.31,5.85-29.34,14.53-41.17,19.33,39.9,16.53,87.4,33.76,128.24.9,2.13,1.93,4.34,3.83,5.65,1.68,1.16,3.79,1.44,5.82,1.67,9.57,1.08,19.21,1.62,28.84,1.62,5.02,0,10.04-.15,15.05-.44,10.53-41.73,10.5-85.4,18.49-127.69,1.72-9.11,3.82-18.17,4.6-27.41,1.34-15.87-1.21-32.15,2.63-47.61h0Z"/></svg>