<?xml version="1.0" encoding="UTF-8"?><svg id="Layer_1" xmlns="http://www.w3.org/2000/svg" viewBox="0 0 229 106.37"><defs><style>.cls-1{fill:#255148;stroke:#000;stroke-miterlimit:10;}</style></defs><ellipse class="cls-1" cx="114.5" cy="74.87" rx="114" ry="31"/><path d="m110.17.83c-6.43,1.83-9.85,8.01-11.29,14.13-1.32,5.6-2.81,13.76,3.53,16.91,2.52,1.25,5.44,1.43,8.2,1.12s5.9-.94,8.36-2.52c5.84-3.76,5.97-11.86,5.01-18-.53-3.38-1.51-7.48-4.06-9.96-1.21-1.18-2.71-1.81-4.38-1.98-1.93-.2-3.89.23-5.76-.43s-2.61,2.25-.8,2.89c1.31.46,2.68.51,4.06.49s2.77-.15,3.96.54c2.05,1.18,2.84,3.95,3.42,6.08.81,3.01,1.12,6.12.94,9.23-.14,2.48-.65,5.2-2.31,7.15s-4.24,2.75-6.69,3.23c-2.19.43-4.55.64-6.74.13s-4.03-1.88-4.64-4.19c-.69-2.61-.07-5.54.44-8.13,1.09-5.6,3.5-12.07,9.57-13.79,1.85-.53,1.07-3.42-.8-2.89h0Z"/><path d="m108.1,31.78c.53,6.22-.03,12.45-.45,18.66s-.87,12.61-1.3,18.91c-.13,1.93,2.87,1.92,3,0,.43-6.3.87-12.61,1.3-18.91s.98-12.44.45-18.66c-.16-1.91-3.16-1.93-3,0h0Z"/><path d="m109.32,48.03c-5.75-3.26-11.06-7.21-15.81-11.81-1.39-1.34-3.51.78-2.12,2.12,4.93,4.76,10.45,8.9,16.42,12.28,1.68.95,3.2-1.64,1.51-2.59h0Z"/><path d="m108.54,51.19c5.38-1.96,10.76-3.92,16.14-5.88.76-.28,1.27-1.02,1.05-1.85-.2-.73-1.08-1.33-1.85-1.05-5.38,1.96-10.76,3.92-16.14,5.88-.76.28-1.27,1.02-1.05,1.85.2.73,1.08,1.33,1.85,1.05h0Z"/><path d="m106.71,67.98c-1.65.4-2.57,1.81-3.7,2.95-1.05,1.06-2.22,2-3.41,2.9-2.55,1.93-5.1,3.8-7.02,6.39-.48.65-.11,1.68.54,2.05.76.45,1.57.11,2.05-.54,1.63-2.2,3.96-3.8,6.11-5.44,1.17-.89,2.34-1.8,3.41-2.81.5-.47.96-.98,1.42-1.49.41-.46.8-.97,1.4-1.12,1.88-.45,1.08-3.35-.8-2.89h0Z"/><path d="m106.15,70.22c2.63,4.64,5.27,9.27,7.9,13.91.95,1.68,3.55.17,2.59-1.51-2.63-4.64-5.27-9.27-7.9-13.91-.95-1.68-3.55-.17-2.59,1.51h0Z"/></svg>