<?xml version="1.0" encoding="UTF-8"?><svg id="Layer_1" xmlns="http://www.w3.org/2000/svg" viewBox="0 0 155.91 132.5"><defs><style>.cls-1{fill:#fff;}</style></defs><g><polygon class="cls-1" points="10.5 50.79 19.89 45.37 19.89 88.21 10.5 93.63 10.5 50.79"/><path d="m19.39,46.23v41.69l-8.39,4.85v-41.69l8.39-4.85m1-1.73l-10.39,6v44l10.39-6v-44h0Z"/></g><g><polygon class="cls-1" points="78.05 88.79 87.44 83.37 87.44 126.21 78.05 131.63 78.05 88.79"/><path d="m86.94,84.23v41.69l-8.39,4.85v-41.69l8.39-4.85m1-1.73l-10.39,6v44l10.39-6v-44h0Z"/></g><g><polygon class="cls-1" points=".5 88.21 .5 45.37 9.89 50.79 9.89 93.63 .5 88.21"/><path d="m1,46.23l8.39,4.85v41.69l-8.39-4.85v-41.69m-1-1.73v44l10.39,6v-44L0,44.5h0Z"/></g><g><polygon class="cls-1" points="68.05 126.21 68.05 83.37 77.44 88.79 77.44 131.63 68.05 126.21"/><path d="m68.55,84.23l8.39,4.85v41.69l-8.39-4.85v-41.69m-1-1.73v44l10.39,6v-44l-10.39-6h0Z"/></g><g><polygon class="cls-1" points="78.03 11.49 87.42 6.07 87.42 48.91 78.03 54.34 78.03 11.49"/><path d="m86.92,6.94v41.69l-8.39,4.85V11.78l8.39-4.85m1-1.73l-10.39,6v44l10.39-6V5.2h0Z"/></g><g><polygon class="cls-1" points="68.03 48.91 68.03 6.07 77.42 11.49 77.42 54.34 68.03 48.91"/><path d="m68.53,6.94l8.39,4.85v41.69l-8.39-4.85V6.94m-1-1.73v44l10.39,6V11.2l-10.39-6h0Z"/></g><g><polygon class="cls-1" points="144.03 50.49 153.42 45.07 153.42 87.91 144.03 93.34 144.03 50.49"/><path d="m152.92,45.94v41.69l-8.39,4.85v-41.69l8.39-4.85m1-1.73l-10.39,6v44l10.39-6v-44h0Z"/></g><g><polygon class="cls-1" points="134.03 87.91 134.03 45.07 143.42 50.49 143.42 93.34 134.03 87.91"/><path d="m134.53,45.94l8.39,4.85v41.69l-8.39-4.85v-41.69m-1-1.73v44l10.39,6v-44l-10.39-6h0Z"/></g><g><polygon class="cls-1" points="1.03 45 77.97 .58 154.91 45 77.97 89.42 1.03 45"/><path d="m77.97,1.15l75.94,43.85-75.94,43.85L2.03,45,77.97,1.15m0-1.15L.03,45l77.94,45,77.94-45L77.97,0h0Z"/></g></svg>