<?xml version="1.0" encoding="UTF-8"?><svg id="Layer_1" xmlns="http://www.w3.org/2000/svg" viewBox="0 0 178 235"><defs><style>.cls-1{fill:#fff;}.cls-2{fill:none;}.cls-2,.cls-3{stroke:#000;stroke-miterlimit:10;}.cls-3{fill:#272b2d;}</style></defs><g><rect class="cls-1" x=".5" y=".5" width="177" height="234"/><path d="m177,1v233H1V1h176m1-1H0v235h178V0h0Z"/></g><path d="m7.62,16.12c19.9,7.66,41.53,4.17,62.02,1.43,10.83-1.45,21.65-2.51,32.59-2.04,10.82.47,21.54,2.03,32.25,3.49,12,1.64,24.06,3.15,36.19,2.94,1.93-.03,1.93-3.03,0-3-21.5.38-42.55-4.68-63.91-6.17-10.91-.76-21.7-.17-32.53,1.18s-21.21,3.1-31.91,3.65c-11.47.59-23.1-.23-33.9-4.38-1.8-.69-2.58,2.21-.8,2.89h0Z"/><path d="m9.44,33.44c9.8,4.05,20.18,6.38,30.59,8.26s21.34,3.3,32.08,2.33,21.02-3.86,31.58-5.45c10.71-1.61,21.55-2.42,32.38-2.48,12.12-.06,24.25.84,36.23,2.72,1.89.3,2.7-2.59.8-2.89-21.26-3.34-42.93-3.74-64.29-1.06-5.33.67-10.64,1.52-15.92,2.55s-10.41,2.18-15.67,2.98c-10.86,1.64-21.76.85-32.55-.93-11.69-1.93-23.44-4.39-34.43-8.93-1.78-.74-2.56,2.17-.8,2.89h0Z"/><path d="m38.46,81.96c7.02,2.48,14.3,4.56,21.79,4.72s14.96-1.67,22.43-2.26,15.6-.65,23.4-.57c7.73.08,15.46.19,23.18.43,8.91.28,17.81.8,26.65,1.88,1.91.23,1.89-2.77,0-3-15.56-1.91-31.25-2.06-46.9-2.28-7.64-.11-15.29-.15-22.93.3-3.73.22-7.45.56-11.15,1.05s-7.56,1.17-11.37,1.38c-8.37.46-16.48-1.79-24.31-4.55-1.82-.64-2.61,2.25-.8,2.89h0Z"/><path d="m38.5,109.79c13.22,5.01,27.63,4.42,41.53,4.28,15.3-.16,30.61-.22,45.91-.19,8.65.02,17.3.06,25.95.14,1.93.02,1.93-2.98,0-3-15.22-.13-30.44-.18-45.66-.13-7.57.02-15.14.07-22.71.14-7.11.07-14.24.27-21.35-.02-7.79-.32-15.55-1.35-22.87-4.12-1.81-.68-2.59,2.21-.8,2.89h0Z"/><path d="m39.23,141.08c6.89,2.14,14.13,2.6,21.31,2.63s14.94-.16,22.4-.39,15.11-.56,22.66-.99,14.49-1.01,21.75-1.13c8.1-.14,16.23.37,24.07,2.53,1.86.51,2.66-2.38.8-2.89-13.99-3.86-28.6-2.6-42.89-1.73-15.07.92-30.16,1.46-45.25,1.59-8.09.07-16.26-.09-24.05-2.51-1.85-.57-2.64,2.32-.8,2.89h0Z"/><path d="m38.56,173.11c6.85,2.12,14.01,1.7,21.02.76s14.41-2.23,21.74-2.49c14.92-.54,29.9,1.1,44.76,2.24,8.4.64,16.8,1.29,25.19,1.93,1.93.15,1.92-2.85,0-3-14.9-1.14-29.79-2.34-44.69-3.39-7.35-.52-14.71-.96-22.08-.86s-14.35.98-21.51,2.07c-7.83,1.19-15.93,2.24-23.64-.15-1.85-.57-2.64,2.32-.8,2.89h0Z"/><circle class="cls-3" cx="23.5" cy="77.5" r="8"/><circle class="cls-2" cx="23.5" cy="107.5" r="8"/><circle class="cls-2" cx="23.5" cy="139.5" r="8"/><circle class="cls-2" cx="23.5" cy="171.5" r="8"/></svg>