<?xml version="1.0" encoding="UTF-8"?><svg id="Layer_1" xmlns="http://www.w3.org/2000/svg" viewBox="0 0 250.8 225.97"><defs><style>.cls-1{fill:#352c04;stroke:#000;stroke-miterlimit:10;}</style></defs><path class="cls-1" d="m49.16,87.78c5.98-28.71,10.03-57.82,12.12-87.06,26.53,10.49,54.71,16.78,83.18,18.57-2.36,14.53-4.1,29.16-5.2,43.84-.13,1.67-.23,3.39.36,4.96.66,1.74,2.11,3.06,3.6,4.17,3.94,2.93,8.5,4.89,12.98,6.9,26.94,12.1,52.57,27.12,76.3,44.69,8.77,6.49,18.1,14.99,17.79,25.89-.03,1.07-.19,2.21-.88,3.02-.59.69-1.47,1.04-2.31,1.34-13.51,4.9-28.14,5.53-42.51,5.75-31.93.5-64.25-.79-94.98-9.47-12.54-3.54-24.71-8.29-36.86-13.02-7.24-2.83-14.49-5.65-21.73-8.48-1.01-.39-2.06-.82-2.76-1.65-.64-.76-.89-1.77-1.04-2.75-1.38-8.92,4.1-17.93,2.34-26.79-.49-2.44-1.51-4.77-1.81-7.25s.33-5.31,2.43-6.66"/><path class="cls-1" d="m2.66,153.3c5.98-28.71,10.03-57.82,12.12-87.06,26.53,10.49,54.71,16.78,83.18,18.57-2.36,14.53-4.1,29.16-5.2,43.84-.13,1.67-.23,3.39.36,4.96.66,1.74,2.11,3.06,3.6,4.17,3.94,2.93,8.5,4.89,12.98,6.9,26.94,12.1,52.57,27.12,76.3,44.69,8.77,6.49,18.1,14.99,17.79,25.89-.03,1.07-.19,2.21-.88,3.02-.59.69-1.47,1.04-2.31,1.34-13.51,4.9-28.14,5.53-42.51,5.75-31.93.5-64.25-.79-94.98-9.47-12.54-3.54-24.71-8.29-36.86-13.02-7.24-2.83-14.49-5.65-21.73-8.48-1.01-.39-2.06-.82-2.76-1.65-.64-.76-.89-1.77-1.04-2.75-1.38-8.92,4.1-17.93,2.34-26.79-.49-2.44-1.51-4.77-1.81-7.25s.33-5.31,2.43-6.66"/></svg>