<?xml version="1.0" encoding="UTF-8"?><svg id="Layer_1" xmlns="http://www.w3.org/2000/svg" viewBox="0 0 138.92 200"><defs><style>.cls-1{fill:#fff;}.cls-2{fill:none;stroke:#000;stroke-miterlimit:10;}</style></defs><g><path class="cls-1" d="m28.28,52.33c-6.67,0-10.82-5.4-10.82-14.1,0-12.86,9.06-28.56,20.21-35,3.13-1.81,6.12-2.73,8.89-2.73,6.67,0,10.82,5.4,10.82,14.1,0,12.87-9.06,28.56-20.21,35-3.13,1.81-6.12,2.73-8.89,2.73Z"/><path d="m46.56,0v1c6.36,0,10.32,5.21,10.32,13.6,0,12.71-8.95,28.21-19.96,34.56-3.01,1.74-6,2.66-8.64,2.66-6.37,0-10.32-5.21-10.32-13.6,0-12.71,8.95-28.21,19.96-34.56,3.01-1.74,6-2.66,8.64-2.66V0m0,0c-2.75,0-5.85.9-9.14,2.79-11.3,6.52-20.46,22.39-20.46,35.43,0,9.25,4.61,14.6,11.32,14.6,2.75,0,5.85-.9,9.14-2.79,11.3-6.52,20.46-22.39,20.46-35.43C57.87,5.35,53.27,0,46.55,0h0Z"/></g><line class="cls-2" x1="37.06" y1="136.5" x2="37.06" y2="49.4"/><line class="cls-2" x1="37.06" y1="77.45" x2="2.78" y2="67.5"/><line class="cls-2" x1="66.78" y1="35.5" x2="37.06" y2="77.45"/><line class="cls-2" x1="24.27" y1="161.6" x2="37.06" y2="135.03"/><line class="cls-2" x1="51.12" y1="149.05" x2="37.06" y2="135.03"/><g><polygon class="cls-1" points="1.14 159.71 1.14 80.87 69.42 120.29 69.42 199.13 1.14 159.71"/><path d="m1.64,81.73l67.28,38.85v77.69L1.64,159.42v-77.69m-1-1.73v80l69.28,40v-80L.64,80h0Z"/></g><g><polygon class="cls-1" points="70.14 120.29 138.42 80.87 138.42 159.71 70.14 199.13 70.14 120.29"/><path d="m137.92,81.73v77.69l-67.28,38.85v-77.69l67.28-38.85m1-1.73l-69.28,40v80l69.28-40v-80h0Z"/></g><g><polygon class="cls-1" points="1 80 69.28 40.58 137.56 80 69.28 119.42 1 80"/><path d="m69.28,41.15l67.28,38.85-67.28,38.85L2,80l67.28-38.85m0-1.15L0,80l69.28,40,69.28-40-69.28-40h0Z"/></g><g><polygon class="cls-1" points="70.14 40.29 138.42 .87 138.42 79.71 70.14 119.13 70.14 40.29"/><path d="m137.92,1.73v77.69l-67.28,38.85V40.58L137.92,1.73M138.92,0l-69.28,40v80l69.28-40V0h0Z"/></g></svg>