<?xml version="1.0" encoding="UTF-8"?><svg id="Layer_1" xmlns="http://www.w3.org/2000/svg" viewBox="0 0 132.97 236.75"><defs><style>.cls-1{fill:#fff;}.cls-2{fill:none;stroke:#000;stroke-miterlimit:10;}</style></defs><g><path class="cls-1" d="m51.2,236.25c-16.59,0-27.74-18.83-27.74-46.87,0-37.22,19.21-78.6,42.82-92.23,5.02-2.9,9.92-4.37,14.58-4.37,16.59,0,27.74,18.83,27.74,46.87,0,37.23-19.21,78.6-42.82,92.23-5.02,2.9-9.93,4.37-14.58,4.37Z"/><path d="m80.86,92.28v1c16.29,0,27.24,18.63,27.24,46.37,0,37.07-19.1,78.25-42.57,91.8-4.94,2.85-9.76,4.3-14.33,4.3-16.29,0-27.24-18.63-27.24-46.37,0-37.07,19.1-78.25,42.57-91.8,4.94-2.85,9.76-4.3,14.33-4.3v-1m0,0c-4.62,0-9.62,1.43-14.83,4.44-23.78,13.73-43.07,55.22-43.07,92.66,0,29.24,11.76,47.37,28.24,47.37,4.62,0,9.62-1.43,14.83-4.44,23.78-13.73,43.07-55.22,43.07-92.66,0-29.24-11.76-47.37-28.24-47.37h0Z"/></g><line class="cls-2" x1=".47" y1="135.13" x2="132.54" y2="57.75"/><line class="cls-2" x1="35.4" y1="37" x2="98.57" y2=".53"/><line class="cls-2" x1="132.54" y1="57.75" x2="99.04" y2=".25"/><line class="cls-2" x1=".47" y1="135.13" x2="34.92" y2="37.27"/></svg>