<?xml version="1.0" encoding="UTF-8"?><svg id="Layer_1" xmlns="http://www.w3.org/2000/svg" viewBox="0 0 215.85 119.35"><defs><style>.cls-1{fill:#fff;}.cls-2{fill:none;stroke:#000;stroke-miterlimit:10;}</style></defs><g><circle class="cls-1" cx="127" cy="87.35" r="31.5"/><path d="m127,56.35c17.09,0,31,13.91,31,31s-13.91,31-31,31-31-13.91-31-31,13.91-31,31-31m0-1c-17.67,0-32,14.33-32,32s14.33,32,32,32,32-14.33,32-32-14.33-32-32-32h0Z"/></g><line class="cls-2" x1="64.5" y1="86.85" x2="95.5" y2="86.85"/><line class="cls-2" x1="159.5" y1="86.85" x2="215.5" y2="30.85"/><line class="cls-2" x1=".5" y1="86.85" x2="87" y2=".35"/><g><circle class="cls-1" cx="32" cy="87.35" r="31.5"/><path d="m32,56.35c17.09,0,31,13.91,31,31s-13.91,31-31,31S1,104.45,1,87.35s13.91-31,31-31m0-1C14.33,55.35,0,69.68,0,87.35s14.33,32,32,32,32-14.33,32-32-14.33-32-32-32h0Z"/></g></svg>