<?xml version="1.0" encoding="UTF-8"?><svg id="Layer_1" xmlns="http://www.w3.org/2000/svg" viewBox="0 0 156.87 200.46"><defs><style>.cls-1{fill:#fff;}</style></defs><g><polygon class="cls-1" points="1.96 66.96 78.9 22.54 155.84 66.96 78.9 111.39 1.96 66.96"/><path d="m78.9,23.12l75.94,43.85-75.94,43.85L2.96,66.96,78.9,23.12m0-1.15L.96,66.96l77.94,45,77.94-45L78.9,21.96h0Z"/></g><g><polygon class="cls-1" points="2.43 155.17 2.43 66.33 79.37 110.75 79.37 199.6 2.43 155.17"/><path d="m2.93,67.2l75.94,43.85v87.69L2.93,154.89v-87.69m-1-1.73v90l77.94,45v-90L1.93,65.46h0Z"/></g><g><polygon class="cls-1" points="79.43 110.75 156.37 66.33 156.37 155.17 79.43 199.6 79.43 110.75"/><path d="m155.87,67.2v87.69l-75.94,43.85v-87.69l75.94-43.85m1-1.73l-77.94,45v90l77.94-45v-90h0Z"/></g><g><polygon class="cls-1" points=".52 45.27 77.51 .83 79.27 22.65 2.29 67.1 .52 45.27"/><path d="m77.07,1.66l1.68,20.72L2.73,66.27l-1.68-20.72L77.07,1.66m.87-1.66L0,45l1.86,22.93L79.8,22.93l-1.86-22.93h0Z"/></g><g><path class="cls-1" d="m79.65,95.11c-4.82,0-9.35-1.08-12.74-3.04-3.31-1.91-5.13-4.42-5.13-7.07,0-2.65,1.82-5.16,5.13-7.07,3.4-1.96,7.92-3.04,12.74-3.04s9.35,1.08,12.74,3.04c3.31,1.91,5.13,4.42,5.13,7.07s-1.82,5.16-5.13,7.07c-3.39,1.96-7.92,3.04-12.74,3.04Z"/><path d="m79.66,74.4v1c4.73,0,9.17,1.06,12.49,2.97,3.15,1.82,4.88,4.17,4.88,6.63s-1.73,4.82-4.88,6.63c-3.32,1.92-7.76,2.97-12.49,2.97s-9.17-1.06-12.49-2.97c-3.15-1.82-4.88-4.17-4.88-6.63s1.73-4.82,4.88-6.63c3.32-1.92,7.76-2.97,12.49-2.97v-1m0,0c-4.7,0-9.4,1.04-12.99,3.11-7.17,4.14-7.17,10.86,0,15,3.59,2.07,8.29,3.11,12.99,3.11s9.4-1.04,12.99-3.11c7.17-4.14,7.17-10.86,0-15-3.59-2.07-8.29-3.11-12.99-3.11h0Z"/></g><g><path class="cls-1" d="m116.65,75.11c-4.82,0-9.35-1.08-12.74-3.04-3.31-1.91-5.13-4.42-5.13-7.07,0-2.65,1.82-5.16,5.13-7.07,3.4-1.96,7.92-3.04,12.74-3.04s9.35,1.08,12.74,3.04c3.31,1.91,5.13,4.42,5.13,7.07s-1.82,5.16-5.13,7.07c-3.39,1.96-7.92,3.04-12.74,3.04Z"/><path d="m116.66,54.4v1c4.73,0,9.17,1.06,12.49,2.97,3.15,1.82,4.88,4.17,4.88,6.63s-1.73,4.82-4.88,6.63c-3.32,1.92-7.76,2.97-12.49,2.97s-9.17-1.06-12.49-2.97c-3.15-1.82-4.88-4.17-4.88-6.63s1.73-4.82,4.88-6.63c3.32-1.92,7.76-2.97,12.49-2.97v-1m0,0c-4.7,0-9.4,1.04-12.99,3.11-7.17,4.14-7.17,10.86,0,15,3.59,2.07,8.29,3.11,12.99,3.11s9.4-1.04,12.99-3.11c7.17-4.14,7.17-10.86,0-15-3.59-2.07-8.29-3.11-12.99-3.11h0Z"/></g><g><path class="cls-1" d="m81.65,55.11c-4.82,0-9.35-1.08-12.74-3.04-3.31-1.91-5.13-4.42-5.13-7.07,0-2.65,1.82-5.16,5.13-7.07,3.4-1.96,7.92-3.04,12.74-3.04s9.35,1.08,12.74,3.04c3.31,1.91,5.13,4.42,5.13,7.07s-1.82,5.16-5.13,7.07c-3.39,1.96-7.92,3.04-12.74,3.04Z"/><path d="m81.66,34.4v1c4.73,0,9.17,1.06,12.49,2.97,3.15,1.82,4.88,4.17,4.88,6.63s-1.73,4.82-4.88,6.63c-3.32,1.92-7.76,2.97-12.49,2.97s-9.17-1.06-12.49-2.97c-3.15-1.82-4.88-4.17-4.88-6.63s1.73-4.82,4.88-6.63c3.32-1.92,7.76-2.97,12.49-2.97v-1m0,0c-4.7,0-9.4,1.04-12.99,3.11-7.17,4.14-7.17,10.86,0,15,3.59,2.07,8.29,3.11,12.99,3.11s9.4-1.04,12.99-3.11c7.17-4.14,7.17-10.86,0-15-3.59-2.07-8.29-3.11-12.99-3.11h0Z"/></g><g><path class="cls-1" d="m44.9,76.07c-4.82,0-9.35-1.08-12.74-3.04-3.31-1.91-5.13-4.42-5.13-7.07s1.82-5.16,5.13-7.07c3.4-1.96,7.92-3.04,12.74-3.04s9.35,1.08,12.74,3.04c3.31,1.91,5.13,4.42,5.13,7.07s-1.82,5.16-5.13,7.07c-3.39,1.96-7.92,3.04-12.74,3.04Z"/><path d="m44.9,55.36v1c4.73,0,9.17,1.06,12.49,2.97,3.15,1.82,4.88,4.17,4.88,6.63s-1.73,4.82-4.88,6.63c-3.32,1.92-7.76,2.97-12.49,2.97s-9.17-1.06-12.49-2.97c-3.15-1.82-4.88-4.17-4.88-6.63s1.73-4.82,4.88-6.63c3.32-1.92,7.76-2.97,12.49-2.97v-1m0,0c-4.7,0-9.4,1.04-12.99,3.11-7.17,4.14-7.17,10.86,0,15,3.59,2.07,8.29,3.11,12.99,3.11s9.4-1.04,12.99-3.11c7.17-4.14,7.17-10.86,0-15-3.59-2.07-8.29-3.11-12.99-3.11h0Z"/></g></svg>