<?xml version="1.0" encoding="UTF-8"?><svg id="Layer_1" xmlns="http://www.w3.org/2000/svg" viewBox="0 0 137.82 229.91"><defs><style>.cls-1{fill:none;}.cls-1,.cls-2{stroke:#000;stroke-miterlimit:10;}.cls-2{fill:#fff;}</style></defs><path class="cls-1" d="m90.13,104.27c.21,14.48.42,28.96.63,43.44.04,2.69.08,5.39.36,7.92.28,2.48.8,4.79,1.31,7.09,2.81,12.58,5.65,25.22,10.42,35.94-19.61,11.73-39.38,23.53-58.66,30.51.14-3.03-.09-6.23.51-9.45.54-2.86,1.43-5.82,2.01-8.69,1.72-8.59.52-15.96,1.44-24.27.34-3.06.96-6.23,1.53-9.38,3.36-18.55,4.89-36.54,4.53-53.38-.22-10.16-8.61-13.07-13.85-18.36-4.69-4.73-9.91-8.98-12.47-16.21,1.66-1.74,3.31-3.49,4.97-5.23.51-.54,1.08-1.12,1.61-1.25.47-.11.81.14,1.12.39,9.58,7.59,18.22,16.66,25.78,27.08,3.74-.95,8.07-2.26,11.96-4.46s7.94-5.82,10.7-10.57c2.21-3.81,3.39-7.96,4.6-11.97,3.74-12.46,8.34-24.99,13.7-37.38,2.06.09,4.11.18,6.17.28-3.05,10.96-6.1,21.92-9.15,32.88-.66,2.37-1.32,4.75-2.13,7.14-.9,2.65-1.97,5.3-3.03,7.94-1.52,3.76-2.54,6.23-4.06,9.99Z"/><path class="cls-2" d="m47.21,113.94c5.23-1.37,10.74-4.77,16.16-8.03,12.29-7.4,24.59-14.34,36.86-20.8,6.84-3.6,14.1-7.4,20.06-14.73,6.11-7.52,9.6-17.24,12.35-26.29,3.73-12.3,6.7-25.7,2.94-33.66-2.17-4.6-6.36-6.74-10.92-7.69s-9.56-.83-14.23-1.5c-2.95-.43-5.82-1.17-9.14-.44-2.72.6-5.62,2.17-8.46,3.95-10.53,6.58-21.26,16.4-31.42,19.06-2.05.54-4.05.77-6.14,1.5-2.46.86-4.99,2.4-7.48,4.06-12.31,8.21-24.13,19.7-35.95,30.64-3.57,3.3-7.42,6.94-9.57,11.7-1.82,4-2.05,8.06-1.49,11.31s1.81,5.89,2.75,8.8c1.06,3.29,1.72,6.95,2.95,10.06,3.29,8.34,10.5,12.25,18.64,13.12,8.14.88,17.24-1.01,26.26-2.89"/></svg>