<?xml version="1.0" encoding="UTF-8"?><svg id="Layer_1" xmlns="http://www.w3.org/2000/svg" viewBox="0 0 232.34 159.2"><defs><style>.cls-1{fill:#fff;}</style></defs><g><polygon class="cls-1" points="3 116.48 201.08 2.11 229.08 42.23 30.99 156.59 3 116.48"/><path d="m200.93,2.78l27.42,39.29L31.14,155.93,3.72,116.64,200.93,2.78m.29-1.32L2.28,116.32l28.57,40.94L229.8,42.39,201.23,1.45h0Z"/></g><g><path class="cls-1" d="m222.64,44.79c-2.36,0-4.91-.78-7.58-2.33-9.53-5.5-17.29-18.93-17.29-29.94,0-7.41,3.53-12.02,9.2-12.02,2.36,0,4.91.78,7.58,2.33,9.53,5.5,17.29,18.93,17.29,29.94,0,7.41-3.53,12.02-9.2,12.02Z"/><path d="m206.97,1h0c2.23,0,4.77.78,7.33,2.26,9.39,5.42,17.04,18.66,17.04,29.51,0,7.1-3.34,11.52-8.7,11.52-2.23,0-4.77-.78-7.33-2.26-9.39-5.42-17.04-18.66-17.04-29.51,0-7.1,3.34-11.52,8.7-11.52M206.97,0c-5.75,0-9.7,4.59-9.7,12.52,0,11.18,7.85,24.78,17.54,30.37,2.81,1.63,5.47,2.39,7.83,2.39,5.75,0,9.7-4.59,9.7-12.52,0-11.18-7.85-24.78-17.54-30.37C211.99.77,209.33,0,206.97,0h0Z"/></g><g><path class="cls-1" d="m25.37,158.7c-2.36,0-4.91-.78-7.58-2.33C8.25,150.87.5,137.44.5,126.43c0-7.41,3.53-12.02,9.2-12.02,2.36,0,4.91.78,7.58,2.33,9.53,5.5,17.29,18.93,17.29,29.94,0,7.41-3.53,12.02-9.2,12.02Z"/><path d="m9.7,114.92h0c2.23,0,4.77.78,7.33,2.26,9.39,5.42,17.04,18.66,17.04,29.51,0,7.1-3.34,11.52-8.7,11.52-2.23,0-4.77-.78-7.33-2.26-9.39-5.42-17.04-18.66-17.04-29.51,0-7.1,3.34-11.52,8.7-11.52m0-1c-5.75,0-9.7,4.59-9.7,12.52,0,11.18,7.85,24.78,17.54,30.37,2.81,1.63,5.47,2.39,7.83,2.39,5.75,0,9.7-4.59,9.7-12.52,0-11.18-7.85-24.78-17.54-30.37-2.81-1.63-5.47-2.39-7.83-2.39h0Z"/></g></svg>