<?xml version="1.0" encoding="UTF-8"?><svg id="Layer_1" xmlns="http://www.w3.org/2000/svg" viewBox="0 0 186 247"><defs><style>.cls-1{fill:#fff;}</style></defs><g><rect class="cls-1" x=".5" y=".5" width="185" height="246"/><path d="m185,1v245H1V1h184m1-1H0v247h186V0h0Z"/></g><path d="m8.9,28.02c10.18.92,20.4.99,30.6,1s20.78.02,31.17.02c20.7.02,41.41.03,62.11.05,11.64,0,23.28.02,34.92.03,1.93,0,1.93-3,0-3-20.7-.02-41.41-.03-62.11-.05-20.7-.02-41.41-.03-62.11-.05-11.53,0-23.08.04-34.58-1-1.92-.17-1.91,2.83,0,3h0Z"/><path d="m10.57,48.2c20.93.02,41.85.03,62.78.05,20.94.02,41.9-.14,62.8,1.15,11.68.72,23.33,1.83,34.97,2.94,1.92.18,1.91-2.82,0-3-20.77-1.98-41.49-3.61-62.36-3.93-20.93-.33-41.88-.16-62.82-.18l-35.37-.03c-1.93,0-1.93,3,0,3h0Z"/><path d="m12.81,69.09c20.52.31,41.05.53,61.57.65s40.89.13,61.33.05c11.55-.05,23.1-.12,34.65-.23,1.93-.02,1.93-3.02,0-3-20.53.19-41.05.29-61.58.28s-40.89-.11-61.33-.31c-11.55-.11-23.1-.26-34.65-.44-1.93-.03-1.93,2.97,0,3h0Z"/><path d="m12.82,94.19c20.3-.16,40.6-.13,60.89.1s40.43.64,60.63,1.25c11.39.34,22.78.75,34.17,1.21,1.93.08,1.93-2.92,0-3-20.28-.83-40.57-1.46-60.86-1.9s-40.42-.69-60.64-.74c-11.4-.03-22.79,0-34.19.09-1.93.02-1.93,3.02,0,3h0Z"/><path d="m13.43,118.55c19.96-.01,39.92-.02,59.87-.04s39.92-.02,59.87-.04c11.31,0,22.62-.01,33.93-.02,1.93,0,1.93-3,0-3l-59.87.04c-19.96.01-39.92.02-59.87.04-11.31,0-22.62.01-33.93.02-1.93,0-1.93,3,0,3h0Z"/><path d="m12.41,141.22l59.99.18c19.91.06,39.83.12,59.74.18,11.25.03,22.5.07,33.74.1,1.93,0,1.93-2.99,0-3-20-.06-39.99-.12-59.99-.18-19.91-.06-39.83-.12-59.74-.18-11.25-.03-22.5-.07-33.74-.1-1.93,0-1.93,2.99,0,3h0Z"/></svg>